<svg class="main-svg" xmlns="http://www.w3.org/2000/svg" xmlns:xlink="http://www.w3.org/1999/xlink" width="700" height="500" viewBox="0 0 700 500"><rect x="0" y="0" width="700" height="500" style="fill: rgb(255, 255, 255); fill-opacity: 1;"/><defs id="defs-389dd1"><g class="clips"><clipPath id="clip389dd1xyplot" class="plotclip"><rect width="540" height="320"/></clipPath><clipPath class="axesclip" id="clip389dd1x"><rect x="80" y="0" width="540" height="500"/></clipPath><clipPath class="axesclip" id="clip389dd1y"><rect x="0" y="100" width="700" height="320"/></clipPath><clipPath class="axesclip" id="clip389dd1xy"><rect x="80" y="100" width="540" height="320"/></clipPath></g><g class="gradients"/></defs><g class="bglayer"/><g class="layer-below"><g class="imagelayer"/><g class="shapelayer"/></g><g class="cartesianlayer"><g class="subplot xy"><g class="layer-subplot"><g class="shapelayer"/><g class="imagelayer"/></g><g class="gridlayer"><g class="x"><path class="xgrid crisp" transform="translate(242.18,0)" d="M0,100v320" style="stroke: rgb(235, 240, 248); stroke-opacity: 1; stroke-width: 1px;"/><path class="xgrid crisp" transform="translate(373.61,0)" d="M0,100v320" style="stroke: rgb(235, 240, 248); stroke-opacity: 1; stroke-width: 1px;"/><path class="xgrid crisp" transform="translate(505.04,0)" d="M0,100v320" style="stroke: rgb(235, 240, 248); stroke-opacity: 1; stroke-width: 1px;"/></g><g class="y"><path class="ygrid crisp" transform="translate(0,382.15)" d="M80,0h540" style="stroke: rgb(235, 240, 248); stroke-opacity: 1; stroke-width: 1px;"/><path class="ygrid crisp" transform="translate(0,336.90999999999997)" d="M80,0h540" style="stroke: rgb(235, 240, 248); stroke-opacity: 1; stroke-width: 1px;"/><path class="ygrid crisp" transform="translate(0,291.66999999999996)" d="M80,0h540" style="stroke: rgb(235, 240, 248); stroke-opacity: 1; stroke-width: 1px;"/><path class="ygrid crisp" transform="translate(0,246.43)" d="M80,0h540" style="stroke: rgb(235, 240, 248); stroke-opacity: 1; stroke-width: 1px;"/><path class="ygrid crisp" transform="translate(0,201.19)" d="M80,0h540" style="stroke: rgb(235, 240, 248); stroke-opacity: 1; stroke-width: 1px;"/><path class="ygrid crisp" transform="translate(0,155.94)" d="M80,0h540" style="stroke: rgb(235, 240, 248); stroke-opacity: 1; stroke-width: 1px;"/><path class="ygrid crisp" transform="translate(0,110.7)" d="M80,0h540" style="stroke: rgb(235, 240, 248); stroke-opacity: 1; stroke-width: 1px;"/></g></g><g class="zerolinelayer"><path class="xzl zl crisp" transform="translate(110.75,0)" d="M0,100v320" style="stroke: rgb(235, 240, 248); stroke-opacity: 1; stroke-width: 2px;"/></g><path class="xlines-below"/><path class="ylines-below"/><g class="overlines-below"/><g class="xaxislayer-below"/><g class="yaxislayer-below"/><g class="overaxes-below"/><g class="plot" transform="translate(80, 100)" clip-path="url('#clip389dd1xyplot')"><g class="scatterlayer mlayer"><g class="trace scatter trace0bd6e8" style="stroke-miterlimit: 2; opacity: 1;"><g class="fills"/><g class="errorbars"/><g class="lines"><path class="js-line" d="M30.75,92.14L48.72,92.14L49.68,110.23L55.66,110.23L55.98,83.09L73.95,83.09L74.91,92.14L76.4,92.14L76.49,110.23L79.47,110.23L79.64,128.33L81.13,128.33L81.22,110.23L87.2,110.23L87.53,92.14L99.5,92.14L100.15,19.75L106.13,19.75L106.45,28.8L112.43,28.8L112.76,46.9L118.74,46.9L119.07,64.99L125.05,64.99L125.38,83.09L131.36,83.09L131.69,92.14L149.66,92.14L150.61,110.23L156.59,110.23L156.92,83.09L174.89,83.09L175.85,92.14L177.33,92.14L177.43,110.23L180.41,110.23L180.58,128.33L182.07,128.33L182.16,110.23L188.14,110.23L188.47,92.14L200.44,92.14L201.08,110.23L207.06,110.23L207.39,128.33L231.35,128.33L232.63,137.38L232.63,92.14L238.61,137.38L238.61,92.14L238.94,110.23L241.92,110.23L257.06,110.23L257.86,137.38L257.86,92.14L263.84,137.38L263.84,92.14L264.17,110.23L267.15,110.23L276.3,110.23L276.79,92.14L279.77,92.14L279.94,110.23L282.93,110.23L283.1,128.33L287.58,128.33L287.83,110.23L292.31,110.23L292.56,137.38L295.54,137.38L295.71,128.33L300.2,128.33L300.45,110.23L304.93,110.23L305.18,137.38L308.16,137.38L308.33,128.33L311.32,128.33L311.49,137.38L314.47,137.38L314.64,155.48L320.62,155.48L320.95,92.14L325.43,92.14L325.68,110.23L330.16,110.23L330.41,128.33L333.4,128.33L333.57,137.38L339.55,137.38L339.88,128.33L358,128.33L358.8,137.38L364.78,137.38L365.11,128.33L377.24,128.33L377.73,110.23L379.21,110.23L379.3,128.33L383.94,128.33L384.04,137.38L390.02,137.38L390.34,128.33L402.48,128.33L402.96,19.75L408.94,19.75L409.27,28.8L415.25,28.8L415.58,46.9L421.56,46.9L421.89,64.99L427.87,64.99L428.2,83.09L434.18,83.09L434.51,92.14L452.47,92.14L453.43,110.23L459.41,110.23L459.74,83.09L477.71,83.09L478.67,92.14L480.15,92.14L480.24,110.23L483.23,110.23L483.4,128.33L484.88,128.33L484.97,110.23L490.95,110.23L491.28,92.14L509.25,92.14" style="vector-effect: non-scaling-stroke; fill: none; stroke: rgb(211, 211, 211); stroke-opacity: 1; stroke-width: 2px; opacity: 1;"/></g><g class="points"><path class="point" transform="translate(30.75,92.14)" d="M3,0A3,3 0 1,1 0,-3A3,3 0 0,1 3,0Z" style="opacity: 1; stroke-width: 0px; fill: rgb(25, 230, 128); fill-opacity: 1;"/><path class="point" transform="translate(48.72,92.14)" d="M3,0A3,3 0 1,1 0,-3A3,3 0 0,1 3,0Z" style="opacity: 1; stroke-width: 0px; fill: rgb(25, 230, 128); fill-opacity: 1;"/><path class="point" transform="translate(49.68,110.23)" d="M3,0A3,3 0 1,1 0,-3A3,3 0 0,1 3,0Z" style="opacity: 1; stroke-width: 0px; fill: rgb(128, 230, 25); fill-opacity: 1;"/><path class="point" transform="translate(55.66,110.23)" d="M3,0A3,3 0 1,1 0,-3A3,3 0 0,1 3,0Z" style="opacity: 1; stroke-width: 0px; fill: rgb(128, 230, 25); fill-opacity: 1;"/><path class="point" transform="translate(55.98,83.09)" d="M3,0A3,3 0 1,1 0,-3A3,3 0 0,1 3,0Z" style="opacity: 1; stroke-width: 0px; fill: rgb(235, 71, 71); fill-opacity: 1;"/><path class="point" transform="translate(73.95,83.09)" d="M3,0A3,3 0 1,1 0,-3A3,3 0 0,1 3,0Z" style="opacity: 1; stroke-width: 0px; fill: rgb(235, 71, 71); fill-opacity: 1;"/><path class="point" transform="translate(74.91,92.14)" d="M3,0A3,3 0 1,1 0,-3A3,3 0 0,1 3,0Z" style="opacity: 1; stroke-width: 0px; fill: rgb(25, 230, 128); fill-opacity: 1;"/><path class="point" transform="translate(76.4,92.14)" d="M3,0A3,3 0 1,1 0,-3A3,3 0 0,1 3,0Z" style="opacity: 1; stroke-width: 0px; fill: rgb(25, 230, 128); fill-opacity: 1;"/><path class="point" transform="translate(76.49,110.23)" d="M3,0A3,3 0 1,1 0,-3A3,3 0 0,1 3,0Z" style="opacity: 1; stroke-width: 0px; fill: rgb(128, 230, 25); fill-opacity: 1;"/><path class="point" transform="translate(79.47,110.23)" d="M3,0A3,3 0 1,1 0,-3A3,3 0 0,1 3,0Z" style="opacity: 1; stroke-width: 0px; fill: rgb(128, 230, 25); fill-opacity: 1;"/><path class="point" transform="translate(79.64,128.33)" d="M3,0A3,3 0 1,1 0,-3A3,3 0 0,1 3,0Z" style="opacity: 1; stroke-width: 0px; fill: rgb(230, 128, 25); fill-opacity: 1;"/><path class="point" transform="translate(81.13,128.33)" d="M3,0A3,3 0 1,1 0,-3A3,3 0 0,1 3,0Z" style="opacity: 1; stroke-width: 0px; fill: rgb(230, 128, 25); fill-opacity: 1;"/><path class="point" transform="translate(81.22,110.23)" d="M3,0A3,3 0 1,1 0,-3A3,3 0 0,1 3,0Z" style="opacity: 1; stroke-width: 0px; fill: rgb(128, 230, 25); fill-opacity: 1;"/><path class="point" transform="translate(87.2,110.23)" d="M3,0A3,3 0 1,1 0,-3A3,3 0 0,1 3,0Z" style="opacity: 1; stroke-width: 0px; fill: rgb(128, 230, 25); fill-opacity: 1;"/><path class="point" transform="translate(87.53,92.14)" d="M3,0A3,3 0 1,1 0,-3A3,3 0 0,1 3,0Z" style="opacity: 1; stroke-width: 0px; fill: rgb(25, 230, 128); fill-opacity: 1;"/><path class="point" transform="translate(99.5,92.14)" d="M3,0A3,3 0 1,1 0,-3A3,3 0 0,1 3,0Z" style="opacity: 1; stroke-width: 0px; fill: rgb(25, 230, 128); fill-opacity: 1;"/><path class="point" transform="translate(100.15,19.75)" d="M3,0A3,3 0 1,1 0,-3A3,3 0 0,1 3,0Z" style="opacity: 1; stroke-width: 0px; fill: rgb(235, 153, 71); fill-opacity: 1;"/><path class="point" transform="translate(106.13,19.75)" d="M3,0A3,3 0 1,1 0,-3A3,3 0 0,1 3,0Z" style="opacity: 1; stroke-width: 0px; fill: rgb(235, 153, 71); fill-opacity: 1;"/><path class="point" transform="translate(106.45,28.8)" d="M3,0A3,3 0 1,1 0,-3A3,3 0 0,1 3,0Z" style="opacity: 1; stroke-width: 0px; fill: rgb(71, 235, 235); fill-opacity: 1;"/><path class="point" transform="translate(112.43,28.8)" d="M3,0A3,3 0 1,1 0,-3A3,3 0 0,1 3,0Z" style="opacity: 1; stroke-width: 0px; fill: rgb(71, 235, 235); fill-opacity: 1;"/><path class="point" transform="translate(112.76,46.9)" d="M3,0A3,3 0 1,1 0,-3A3,3 0 0,1 3,0Z" style="opacity: 1; stroke-width: 0px; fill: rgb(71, 235, 71); fill-opacity: 1;"/><path class="point" transform="translate(118.74,46.9)" d="M3,0A3,3 0 1,1 0,-3A3,3 0 0,1 3,0Z" style="opacity: 1; stroke-width: 0px; fill: rgb(71, 235, 71); fill-opacity: 1;"/><path class="point" transform="translate(119.07,64.99)" d="M3,0A3,3 0 1,1 0,-3A3,3 0 0,1 3,0Z" style="opacity: 1; stroke-width: 0px; fill: rgb(235, 235, 71); fill-opacity: 1;"/><path class="point" transform="translate(125.05,64.99)" d="M3,0A3,3 0 1,1 0,-3A3,3 0 0,1 3,0Z" style="opacity: 1; stroke-width: 0px; fill: rgb(235, 235, 71); fill-opacity: 1;"/><path class="point" transform="translate(125.38,83.09)" d="M3,0A3,3 0 1,1 0,-3A3,3 0 0,1 3,0Z" style="opacity: 1; stroke-width: 0px; fill: rgb(235, 71, 71); fill-opacity: 1;"/><path class="point" transform="translate(131.36,83.09)" d="M3,0A3,3 0 1,1 0,-3A3,3 0 0,1 3,0Z" style="opacity: 1; stroke-width: 0px; fill: rgb(235, 71, 71); fill-opacity: 1;"/><path class="point" transform="translate(131.69,92.14)" d="M3,0A3,3 0 1,1 0,-3A3,3 0 0,1 3,0Z" style="opacity: 1; stroke-width: 0px; fill: rgb(25, 230, 128); fill-opacity: 1;"/><path class="point" transform="translate(149.66,92.14)" d="M3,0A3,3 0 1,1 0,-3A3,3 0 0,1 3,0Z" style="opacity: 1; stroke-width: 0px; fill: rgb(25, 230, 128); fill-opacity: 1;"/><path class="point" transform="translate(150.61,110.23)" d="M3,0A3,3 0 1,1 0,-3A3,3 0 0,1 3,0Z" style="opacity: 1; stroke-width: 0px; fill: rgb(128, 230, 25); fill-opacity: 1;"/><path class="point" transform="translate(156.59,110.23)" d="M3,0A3,3 0 1,1 0,-3A3,3 0 0,1 3,0Z" style="opacity: 1; stroke-width: 0px; fill: rgb(128, 230, 25); fill-opacity: 1;"/><path class="point" transform="translate(156.92,83.09)" d="M3,0A3,3 0 1,1 0,-3A3,3 0 0,1 3,0Z" style="opacity: 1; stroke-width: 0px; fill: rgb(235, 71, 71); fill-opacity: 1;"/><path class="point" transform="translate(174.89,83.09)" d="M3,0A3,3 0 1,1 0,-3A3,3 0 0,1 3,0Z" style="opacity: 1; stroke-width: 0px; fill: rgb(235, 71, 71); fill-opacity: 1;"/><path class="point" transform="translate(175.85,92.14)" d="M3,0A3,3 0 1,1 0,-3A3,3 0 0,1 3,0Z" style="opacity: 1; stroke-width: 0px; fill: rgb(25, 230, 128); fill-opacity: 1;"/><path class="point" transform="translate(177.33,92.14)" d="M3,0A3,3 0 1,1 0,-3A3,3 0 0,1 3,0Z" style="opacity: 1; stroke-width: 0px; fill: rgb(25, 230, 128); fill-opacity: 1;"/><path class="point" transform="translate(177.43,110.23)" d="M3,0A3,3 0 1,1 0,-3A3,3 0 0,1 3,0Z" style="opacity: 1; stroke-width: 0px; fill: rgb(128, 230, 25); fill-opacity: 1;"/><path class="point" transform="translate(180.41,110.23)" d="M3,0A3,3 0 1,1 0,-3A3,3 0 0,1 3,0Z" style="opacity: 1; stroke-width: 0px; fill: rgb(128, 230, 25); fill-opacity: 1;"/><path class="point" transform="translate(180.58,128.33)" d="M3,0A3,3 0 1,1 0,-3A3,3 0 0,1 3,0Z" style="opacity: 1; stroke-width: 0px; fill: rgb(230, 128, 25); fill-opacity: 1;"/><path class="point" transform="translate(182.07,128.33)" d="M3,0A3,3 0 1,1 0,-3A3,3 0 0,1 3,0Z" style="opacity: 1; stroke-width: 0px; fill: rgb(230, 128, 25); fill-opacity: 1;"/><path class="point" transform="translate(182.16,110.23)" d="M3,0A3,3 0 1,1 0,-3A3,3 0 0,1 3,0Z" style="opacity: 1; stroke-width: 0px; fill: rgb(128, 230, 25); fill-opacity: 1;"/><path class="point" transform="translate(188.14,110.23)" d="M3,0A3,3 0 1,1 0,-3A3,3 0 0,1 3,0Z" style="opacity: 1; stroke-width: 0px; fill: rgb(128, 230, 25); fill-opacity: 1;"/><path class="point" transform="translate(188.47,92.14)" d="M3,0A3,3 0 1,1 0,-3A3,3 0 0,1 3,0Z" style="opacity: 1; stroke-width: 0px; fill: rgb(25, 230, 128); fill-opacity: 1;"/><path class="point" transform="translate(200.44,92.14)" d="M3,0A3,3 0 1,1 0,-3A3,3 0 0,1 3,0Z" style="opacity: 1; stroke-width: 0px; fill: rgb(25, 230, 128); fill-opacity: 1;"/><path class="point" transform="translate(201.08,110.23)" d="M3,0A3,3 0 1,1 0,-3A3,3 0 0,1 3,0Z" style="opacity: 1; stroke-width: 0px; fill: rgb(128, 230, 25); fill-opacity: 1;"/><path class="point" transform="translate(207.06,110.23)" d="M3,0A3,3 0 1,1 0,-3A3,3 0 0,1 3,0Z" style="opacity: 1; stroke-width: 0px; fill: rgb(128, 230, 25); fill-opacity: 1;"/><path class="point" transform="translate(207.39,128.33)" d="M3,0A3,3 0 1,1 0,-3A3,3 0 0,1 3,0Z" style="opacity: 1; stroke-width: 0px; fill: rgb(230, 128, 25); fill-opacity: 1;"/><path class="point" transform="translate(231.35,128.33)" d="M3,0A3,3 0 1,1 0,-3A3,3 0 0,1 3,0Z" style="opacity: 1; stroke-width: 0px; fill: rgb(230, 128, 25); fill-opacity: 1;"/><path class="point" transform="translate(232.63,137.38)" d="M3,0A3,3 0 1,1 0,-3A3,3 0 0,1 3,0Z" style="opacity: 1; stroke-width: 0px; fill: rgb(25, 229, 230); fill-opacity: 1;"/><path class="point" transform="translate(232.63,92.14)" d="M3,0A3,3 0 1,1 0,-3A3,3 0 0,1 3,0Z" style="opacity: 1; stroke-width: 0px; fill: rgb(25, 230, 128); fill-opacity: 1;"/><path class="point" transform="translate(238.61,137.38)" d="M3,0A3,3 0 1,1 0,-3A3,3 0 0,1 3,0Z" style="opacity: 1; stroke-width: 0px; fill: rgb(25, 229, 230); fill-opacity: 1;"/><path class="point" transform="translate(238.61,92.14)" d="M3,0A3,3 0 1,1 0,-3A3,3 0 0,1 3,0Z" style="opacity: 1; stroke-width: 0px; fill: rgb(25, 230, 128); fill-opacity: 1;"/><path class="point" transform="translate(238.94,110.23)" d="M3,0A3,3 0 1,1 0,-3A3,3 0 0,1 3,0Z" style="opacity: 1; stroke-width: 0px; fill: rgb(128, 230, 25); fill-opacity: 1;"/><path class="point" transform="translate(241.92,110.23)" d="M3,0A3,3 0 1,1 0,-3A3,3 0 0,1 3,0Z" style="opacity: 1; stroke-width: 0px; fill: rgb(128, 230, 25); fill-opacity: 1;"/><path class="point" transform="translate(242.09,110.23)" d="M3,0A3,3 0 1,1 0,-3A3,3 0 0,1 3,0Z" style="opacity: 1; stroke-width: 0px; fill: rgb(128, 230, 25); fill-opacity: 1;"/><path class="point" transform="translate(257.06,110.23)" d="M3,0A3,3 0 1,1 0,-3A3,3 0 0,1 3,0Z" style="opacity: 1; stroke-width: 0px; fill: rgb(128, 230, 25); fill-opacity: 1;"/><path class="point" transform="translate(257.86,137.38)" d="M3,0A3,3 0 1,1 0,-3A3,3 0 0,1 3,0Z" style="opacity: 1; stroke-width: 0px; fill: rgb(25, 229, 230); fill-opacity: 1;"/><path class="point" transform="translate(257.86,92.14)" d="M3,0A3,3 0 1,1 0,-3A3,3 0 0,1 3,0Z" style="opacity: 1; stroke-width: 0px; fill: rgb(25, 230, 128); fill-opacity: 1;"/><path class="point" transform="translate(263.84,137.38)" d="M3,0A3,3 0 1,1 0,-3A3,3 0 0,1 3,0Z" style="opacity: 1; stroke-width: 0px; fill: rgb(25, 229, 230); fill-opacity: 1;"/><path class="point" transform="translate(263.84,92.14)" d="M3,0A3,3 0 1,1 0,-3A3,3 0 0,1 3,0Z" style="opacity: 1; stroke-width: 0px; fill: rgb(25, 230, 128); fill-opacity: 1;"/><path class="point" transform="translate(264.17,110.23)" d="M3,0A3,3 0 1,1 0,-3A3,3 0 0,1 3,0Z" style="opacity: 1; stroke-width: 0px; fill: rgb(128, 230, 25); fill-opacity: 1;"/><path class="point" transform="translate(267.15,110.23)" d="M3,0A3,3 0 1,1 0,-3A3,3 0 0,1 3,0Z" style="opacity: 1; stroke-width: 0px; fill: rgb(128, 230, 25); fill-opacity: 1;"/><path class="point" transform="translate(267.33,110.23)" d="M3,0A3,3 0 1,1 0,-3A3,3 0 0,1 3,0Z" style="opacity: 1; stroke-width: 0px; fill: rgb(128, 230, 25); fill-opacity: 1;"/><path class="point" transform="translate(276.3,110.23)" d="M3,0A3,3 0 1,1 0,-3A3,3 0 0,1 3,0Z" style="opacity: 1; stroke-width: 0px; fill: rgb(128, 230, 25); fill-opacity: 1;"/><path class="point" transform="translate(276.79,92.14)" d="M3,0A3,3 0 1,1 0,-3A3,3 0 0,1 3,0Z" style="opacity: 1; stroke-width: 0px; fill: rgb(25, 230, 128); fill-opacity: 1;"/><path class="point" transform="translate(279.77,92.14)" d="M3,0A3,3 0 1,1 0,-3A3,3 0 0,1 3,0Z" style="opacity: 1; stroke-width: 0px; fill: rgb(25, 230, 128); fill-opacity: 1;"/><path class="point" transform="translate(279.94,110.23)" d="M3,0A3,3 0 1,1 0,-3A3,3 0 0,1 3,0Z" style="opacity: 1; stroke-width: 0px; fill: rgb(128, 230, 25); fill-opacity: 1;"/><path class="point" transform="translate(282.93,110.23)" d="M3,0A3,3 0 1,1 0,-3A3,3 0 0,1 3,0Z" style="opacity: 1; stroke-width: 0px; fill: rgb(128, 230, 25); fill-opacity: 1;"/><path class="point" transform="translate(283.1,128.33)" d="M3,0A3,3 0 1,1 0,-3A3,3 0 0,1 3,0Z" style="opacity: 1; stroke-width: 0px; fill: rgb(230, 128, 25); fill-opacity: 1;"/><path class="point" transform="translate(287.58,128.33)" d="M3,0A3,3 0 1,1 0,-3A3,3 0 0,1 3,0Z" style="opacity: 1; stroke-width: 0px; fill: rgb(230, 128, 25); fill-opacity: 1;"/><path class="point" transform="translate(287.83,110.23)" d="M3,0A3,3 0 1,1 0,-3A3,3 0 0,1 3,0Z" style="opacity: 1; stroke-width: 0px; fill: rgb(128, 230, 25); fill-opacity: 1;"/><path class="point" transform="translate(292.31,110.23)" d="M3,0A3,3 0 1,1 0,-3A3,3 0 0,1 3,0Z" style="opacity: 1; stroke-width: 0px; fill: rgb(128, 230, 25); fill-opacity: 1;"/><path class="point" transform="translate(292.56,137.38)" d="M3,0A3,3 0 1,1 0,-3A3,3 0 0,1 3,0Z" style="opacity: 1; stroke-width: 0px; fill: rgb(25, 229, 230); fill-opacity: 1;"/><path class="point" transform="translate(295.54,137.38)" d="M3,0A3,3 0 1,1 0,-3A3,3 0 0,1 3,0Z" style="opacity: 1; stroke-width: 0px; fill: rgb(25, 229, 230); fill-opacity: 1;"/><path class="point" transform="translate(295.71,128.33)" d="M3,0A3,3 0 1,1 0,-3A3,3 0 0,1 3,0Z" style="opacity: 1; stroke-width: 0px; fill: rgb(230, 128, 25); fill-opacity: 1;"/><path class="point" transform="translate(300.2,128.33)" d="M3,0A3,3 0 1,1 0,-3A3,3 0 0,1 3,0Z" style="opacity: 1; stroke-width: 0px; fill: rgb(230, 128, 25); fill-opacity: 1;"/><path class="point" transform="translate(300.45,110.23)" d="M3,0A3,3 0 1,1 0,-3A3,3 0 0,1 3,0Z" style="opacity: 1; stroke-width: 0px; fill: rgb(128, 230, 25); fill-opacity: 1;"/><path class="point" transform="translate(304.93,110.23)" d="M3,0A3,3 0 1,1 0,-3A3,3 0 0,1 3,0Z" style="opacity: 1; stroke-width: 0px; fill: rgb(128, 230, 25); fill-opacity: 1;"/><path class="point" transform="translate(305.18,137.38)" d="M3,0A3,3 0 1,1 0,-3A3,3 0 0,1 3,0Z" style="opacity: 1; stroke-width: 0px; fill: rgb(25, 229, 230); fill-opacity: 1;"/><path class="point" transform="translate(308.16,137.38)" d="M3,0A3,3 0 1,1 0,-3A3,3 0 0,1 3,0Z" style="opacity: 1; stroke-width: 0px; fill: rgb(25, 229, 230); fill-opacity: 1;"/><path class="point" transform="translate(308.33,128.33)" d="M3,0A3,3 0 1,1 0,-3A3,3 0 0,1 3,0Z" style="opacity: 1; stroke-width: 0px; fill: rgb(230, 128, 25); fill-opacity: 1;"/><path class="point" transform="translate(311.32,128.33)" d="M3,0A3,3 0 1,1 0,-3A3,3 0 0,1 3,0Z" style="opacity: 1; stroke-width: 0px; fill: rgb(230, 128, 25); fill-opacity: 1;"/><path class="point" transform="translate(311.49,137.38)" d="M3,0A3,3 0 1,1 0,-3A3,3 0 0,1 3,0Z" style="opacity: 1; stroke-width: 0px; fill: rgb(25, 229, 230); fill-opacity: 1;"/><path class="point" transform="translate(314.47,137.38)" d="M3,0A3,3 0 1,1 0,-3A3,3 0 0,1 3,0Z" style="opacity: 1; stroke-width: 0px; fill: rgb(25, 229, 230); fill-opacity: 1;"/><path class="point" transform="translate(314.64,155.48)" d="M3,0A3,3 0 1,1 0,-3A3,3 0 0,1 3,0Z" style="opacity: 1; stroke-width: 0px; fill: rgb(25, 230, 25); fill-opacity: 1;"/><path class="point" transform="translate(320.62,155.48)" d="M3,0A3,3 0 1,1 0,-3A3,3 0 0,1 3,0Z" style="opacity: 1; stroke-width: 0px; fill: rgb(25, 230, 25); fill-opacity: 1;"/><path class="point" transform="translate(320.95,92.14)" d="M3,0A3,3 0 1,1 0,-3A3,3 0 0,1 3,0Z" style="opacity: 1; stroke-width: 0px; fill: rgb(25, 230, 128); fill-opacity: 1;"/><path class="point" transform="translate(325.43,92.14)" d="M3,0A3,3 0 1,1 0,-3A3,3 0 0,1 3,0Z" style="opacity: 1; stroke-width: 0px; fill: rgb(25, 230, 128); fill-opacity: 1;"/><path class="point" transform="translate(325.68,110.23)" d="M3,0A3,3 0 1,1 0,-3A3,3 0 0,1 3,0Z" style="opacity: 1; stroke-width: 0px; fill: rgb(128, 230, 25); fill-opacity: 1;"/><path class="point" transform="translate(330.16,110.23)" d="M3,0A3,3 0 1,1 0,-3A3,3 0 0,1 3,0Z" style="opacity: 1; stroke-width: 0px; fill: rgb(128, 230, 25); fill-opacity: 1;"/><path class="point" transform="translate(330.41,128.33)" d="M3,0A3,3 0 1,1 0,-3A3,3 0 0,1 3,0Z" style="opacity: 1; stroke-width: 0px; fill: rgb(230, 128, 25); fill-opacity: 1;"/><path class="point" transform="translate(333.4,128.33)" d="M3,0A3,3 0 1,1 0,-3A3,3 0 0,1 3,0Z" style="opacity: 1; stroke-width: 0px; fill: rgb(230, 128, 25); fill-opacity: 1;"/><path class="point" transform="translate(333.57,137.38)" d="M3,0A3,3 0 1,1 0,-3A3,3 0 0,1 3,0Z" style="opacity: 1; stroke-width: 0px; fill: rgb(25, 229, 230); fill-opacity: 1;"/><path class="point" transform="translate(339.55,137.38)" d="M3,0A3,3 0 1,1 0,-3A3,3 0 0,1 3,0Z" style="opacity: 1; stroke-width: 0px; fill: rgb(25, 229, 230); fill-opacity: 1;"/><path class="point" transform="translate(339.88,128.33)" d="M3,0A3,3 0 1,1 0,-3A3,3 0 0,1 3,0Z" style="opacity: 1; stroke-width: 0px; fill: rgb(230, 128, 25); fill-opacity: 1;"/><path class="point" transform="translate(342.86,128.33)" d="M3,0A3,3 0 1,1 0,-3A3,3 0 0,1 3,0Z" style="opacity: 1; stroke-width: 0px; fill: rgb(230, 128, 25); fill-opacity: 1;"/><path class="point" transform="translate(343.03,128.33)" d="M3,0A3,3 0 1,1 0,-3A3,3 0 0,1 3,0Z" style="opacity: 1; stroke-width: 0px; fill: rgb(230, 128, 25); fill-opacity: 1;"/><path class="point" transform="translate(358,128.33)" d="M3,0A3,3 0 1,1 0,-3A3,3 0 0,1 3,0Z" style="opacity: 1; stroke-width: 0px; fill: rgb(230, 128, 25); fill-opacity: 1;"/><path class="point" transform="translate(358.8,137.38)" d="M3,0A3,3 0 1,1 0,-3A3,3 0 0,1 3,0Z" style="opacity: 1; stroke-width: 0px; fill: rgb(25, 229, 230); fill-opacity: 1;"/><path class="point" transform="translate(364.78,137.38)" d="M3,0A3,3 0 1,1 0,-3A3,3 0 0,1 3,0Z" style="opacity: 1; stroke-width: 0px; fill: rgb(25, 229, 230); fill-opacity: 1;"/><path class="point" transform="translate(365.11,128.33)" d="M3,0A3,3 0 1,1 0,-3A3,3 0 0,1 3,0Z" style="opacity: 1; stroke-width: 0px; fill: rgb(230, 128, 25); fill-opacity: 1;"/><path class="point" transform="translate(368.09,128.33)" d="M3,0A3,3 0 1,1 0,-3A3,3 0 0,1 3,0Z" style="opacity: 1; stroke-width: 0px; fill: rgb(230, 128, 25); fill-opacity: 1;"/><path class="point" transform="translate(368.26,128.33)" d="M3,0A3,3 0 1,1 0,-3A3,3 0 0,1 3,0Z" style="opacity: 1; stroke-width: 0px; fill: rgb(230, 128, 25); fill-opacity: 1;"/><path class="point" transform="translate(377.24,128.33)" d="M3,0A3,3 0 1,1 0,-3A3,3 0 0,1 3,0Z" style="opacity: 1; stroke-width: 0px; fill: rgb(230, 128, 25); fill-opacity: 1;"/><path class="point" transform="translate(377.73,110.23)" d="M3,0A3,3 0 1,1 0,-3A3,3 0 0,1 3,0Z" style="opacity: 1; stroke-width: 0px; fill: rgb(128, 230, 25); fill-opacity: 1;"/><path class="point" transform="translate(379.21,110.23)" d="M3,0A3,3 0 1,1 0,-3A3,3 0 0,1 3,0Z" style="opacity: 1; stroke-width: 0px; fill: rgb(128, 230, 25); fill-opacity: 1;"/><path class="point" transform="translate(379.3,128.33)" d="M3,0A3,3 0 1,1 0,-3A3,3 0 0,1 3,0Z" style="opacity: 1; stroke-width: 0px; fill: rgb(230, 128, 25); fill-opacity: 1;"/><path class="point" transform="translate(382.29,128.33)" d="M3,0A3,3 0 1,1 0,-3A3,3 0 0,1 3,0Z" style="opacity: 1; stroke-width: 0px; fill: rgb(230, 128, 25); fill-opacity: 1;"/><path class="point" transform="translate(382.46,128.33)" d="M3,0A3,3 0 1,1 0,-3A3,3 0 0,1 3,0Z" style="opacity: 1; stroke-width: 0px; fill: rgb(230, 128, 25); fill-opacity: 1;"/><path class="point" transform="translate(383.94,128.33)" d="M3,0A3,3 0 1,1 0,-3A3,3 0 0,1 3,0Z" style="opacity: 1; stroke-width: 0px; fill: rgb(230, 128, 25); fill-opacity: 1;"/><path class="point" transform="translate(384.04,137.38)" d="M3,0A3,3 0 1,1 0,-3A3,3 0 0,1 3,0Z" style="opacity: 1; stroke-width: 0px; fill: rgb(25, 229, 230); fill-opacity: 1;"/><path class="point" transform="translate(390.02,137.38)" d="M3,0A3,3 0 1,1 0,-3A3,3 0 0,1 3,0Z" style="opacity: 1; stroke-width: 0px; fill: rgb(25, 229, 230); fill-opacity: 1;"/><path class="point" transform="translate(390.34,128.33)" d="M3,0A3,3 0 1,1 0,-3A3,3 0 0,1 3,0Z" style="opacity: 1; stroke-width: 0px; fill: rgb(230, 128, 25); fill-opacity: 1;"/><path class="point" transform="translate(393.33,128.33)" d="M3,0A3,3 0 1,1 0,-3A3,3 0 0,1 3,0Z" style="opacity: 1; stroke-width: 0px; fill: rgb(230, 128, 25); fill-opacity: 1;"/><path class="point" transform="translate(393.5,128.33)" d="M3,0A3,3 0 1,1 0,-3A3,3 0 0,1 3,0Z" style="opacity: 1; stroke-width: 0px; fill: rgb(230, 128, 25); fill-opacity: 1;"/><path class="point" transform="translate(402.48,128.33)" d="M3,0A3,3 0 1,1 0,-3A3,3 0 0,1 3,0Z" style="opacity: 1; stroke-width: 0px; fill: rgb(230, 128, 25); fill-opacity: 1;"/><path class="point" transform="translate(402.96,19.75)" d="M3,0A3,3 0 1,1 0,-3A3,3 0 0,1 3,0Z" style="opacity: 1; stroke-width: 0px; fill: rgb(235, 153, 71); fill-opacity: 1;"/><path class="point" transform="translate(408.94,19.75)" d="M3,0A3,3 0 1,1 0,-3A3,3 0 0,1 3,0Z" style="opacity: 1; stroke-width: 0px; fill: rgb(235, 153, 71); fill-opacity: 1;"/><path class="point" transform="translate(409.27,28.8)" d="M3,0A3,3 0 1,1 0,-3A3,3 0 0,1 3,0Z" style="opacity: 1; stroke-width: 0px; fill: rgb(71, 235, 235); fill-opacity: 1;"/><path class="point" transform="translate(415.25,28.8)" d="M3,0A3,3 0 1,1 0,-3A3,3 0 0,1 3,0Z" style="opacity: 1; stroke-width: 0px; fill: rgb(71, 235, 235); fill-opacity: 1;"/><path class="point" transform="translate(415.58,46.9)" d="M3,0A3,3 0 1,1 0,-3A3,3 0 0,1 3,0Z" style="opacity: 1; stroke-width: 0px; fill: rgb(71, 235, 71); fill-opacity: 1;"/><path class="point" transform="translate(421.56,46.9)" d="M3,0A3,3 0 1,1 0,-3A3,3 0 0,1 3,0Z" style="opacity: 1; stroke-width: 0px; fill: rgb(71, 235, 71); fill-opacity: 1;"/><path class="point" transform="translate(421.89,64.99)" d="M3,0A3,3 0 1,1 0,-3A3,3 0 0,1 3,0Z" style="opacity: 1; stroke-width: 0px; fill: rgb(235, 235, 71); fill-opacity: 1;"/><path class="point" transform="translate(427.87,64.99)" d="M3,0A3,3 0 1,1 0,-3A3,3 0 0,1 3,0Z" style="opacity: 1; stroke-width: 0px; fill: rgb(235, 235, 71); fill-opacity: 1;"/><path class="point" transform="translate(428.2,83.09)" d="M3,0A3,3 0 1,1 0,-3A3,3 0 0,1 3,0Z" style="opacity: 1; stroke-width: 0px; fill: rgb(235, 71, 71); fill-opacity: 1;"/><path class="point" transform="translate(434.18,83.09)" d="M3,0A3,3 0 1,1 0,-3A3,3 0 0,1 3,0Z" style="opacity: 1; stroke-width: 0px; fill: rgb(235, 71, 71); fill-opacity: 1;"/><path class="point" transform="translate(434.51,92.14)" d="M3,0A3,3 0 1,1 0,-3A3,3 0 0,1 3,0Z" style="opacity: 1; stroke-width: 0px; fill: rgb(25, 230, 128); fill-opacity: 1;"/><path class="point" transform="translate(452.47,92.14)" d="M3,0A3,3 0 1,1 0,-3A3,3 0 0,1 3,0Z" style="opacity: 1; stroke-width: 0px; fill: rgb(25, 230, 128); fill-opacity: 1;"/><path class="point" transform="translate(453.43,110.23)" d="M3,0A3,3 0 1,1 0,-3A3,3 0 0,1 3,0Z" style="opacity: 1; stroke-width: 0px; fill: rgb(128, 230, 25); fill-opacity: 1;"/><path class="point" transform="translate(459.41,110.23)" d="M3,0A3,3 0 1,1 0,-3A3,3 0 0,1 3,0Z" style="opacity: 1; stroke-width: 0px; fill: rgb(128, 230, 25); fill-opacity: 1;"/><path class="point" transform="translate(459.74,83.09)" d="M3,0A3,3 0 1,1 0,-3A3,3 0 0,1 3,0Z" style="opacity: 1; stroke-width: 0px; fill: rgb(235, 71, 71); fill-opacity: 1;"/><path class="point" transform="translate(477.71,83.09)" d="M3,0A3,3 0 1,1 0,-3A3,3 0 0,1 3,0Z" style="opacity: 1; stroke-width: 0px; fill: rgb(235, 71, 71); fill-opacity: 1;"/><path class="point" transform="translate(478.67,92.14)" d="M3,0A3,3 0 1,1 0,-3A3,3 0 0,1 3,0Z" style="opacity: 1; stroke-width: 0px; fill: rgb(25, 230, 128); fill-opacity: 1;"/><path class="point" transform="translate(480.15,92.14)" d="M3,0A3,3 0 1,1 0,-3A3,3 0 0,1 3,0Z" style="opacity: 1; stroke-width: 0px; fill: rgb(25, 230, 128); fill-opacity: 1;"/><path class="point" transform="translate(480.24,110.23)" d="M3,0A3,3 0 1,1 0,-3A3,3 0 0,1 3,0Z" style="opacity: 1; stroke-width: 0px; fill: rgb(128, 230, 25); fill-opacity: 1;"/><path class="point" transform="translate(483.23,110.23)" d="M3,0A3,3 0 1,1 0,-3A3,3 0 0,1 3,0Z" style="opacity: 1; stroke-width: 0px; fill: rgb(128, 230, 25); fill-opacity: 1;"/><path class="point" transform="translate(483.4,128.33)" d="M3,0A3,3 0 1,1 0,-3A3,3 0 0,1 3,0Z" style="opacity: 1; stroke-width: 0px; fill: rgb(230, 128, 25); fill-opacity: 1;"/><path class="point" transform="translate(484.88,128.33)" d="M3,0A3,3 0 1,1 0,-3A3,3 0 0,1 3,0Z" style="opacity: 1; stroke-width: 0px; fill: rgb(230, 128, 25); fill-opacity: 1;"/><path class="point" transform="translate(484.97,110.23)" d="M3,0A3,3 0 1,1 0,-3A3,3 0 0,1 3,0Z" style="opacity: 1; stroke-width: 0px; fill: rgb(128, 230, 25); fill-opacity: 1;"/><path class="point" transform="translate(490.95,110.23)" d="M3,0A3,3 0 1,1 0,-3A3,3 0 0,1 3,0Z" style="opacity: 1; stroke-width: 0px; fill: rgb(128, 230, 25); fill-opacity: 1;"/><path class="point" transform="translate(491.28,92.14)" d="M3,0A3,3 0 1,1 0,-3A3,3 0 0,1 3,0Z" style="opacity: 1; stroke-width: 0px; fill: rgb(25, 230, 128); fill-opacity: 1;"/><path class="point" transform="translate(509.25,92.14)" d="M3,0A3,3 0 1,1 0,-3A3,3 0 0,1 3,0Z" style="opacity: 1; stroke-width: 0px; fill: rgb(25, 230, 128); fill-opacity: 1;"/></g><g class="text"/></g><g class="trace scatter trace1e6faf" style="stroke-miterlimit: 2; opacity: 1;"><g class="fills"/><g class="errorbars"/><g class="lines"><path class="js-line" d="M30.75,236.91L30.75,173.57L54.71,173.57L55.98,155.48L78.68,236.91L79.94,155.48L81.22,236.91L81.22,173.57L105.18,236.91L105.18,173.57L106.45,191.67L106.45,128.33L130.41,191.67L130.41,128.33L131.69,236.91L131.69,173.57L155.65,173.57L156.92,155.48L179.62,236.91L180.88,155.48L182.16,236.91L182.16,173.57L200.12,236.91L200.12,173.57L201.08,245.96L207.06,245.96L207.39,264.06L207.39,191.67L219.37,264.06L219.37,191.67L220.01,282.15L220.01,200.72L231.98,282.15L231.98,200.72L232.63,218.81L256.59,282.15L256.59,218.81L257.86,273.1L257.86,200.72L281.82,273.1L281.82,200.72L283.1,264.06L283.1,200.72L295.07,264.06L295.07,200.72L295.71,282.15L295.71,200.72L307.69,282.15L307.69,200.72L308.33,291.2L308.33,218.81L332.29,291.2L332.29,218.81L333.57,300.25L333.57,236.91L357.53,300.25L357.53,236.91L358.8,218.81L358.8,191.67L382.76,218.81L382.76,191.67L384.04,236.91L384.04,200.72L408,236.91L408,200.72L409.27,191.67L409.27,128.33L433.23,191.67L433.23,128.33L434.51,236.91L434.51,173.57L458.47,173.57L459.74,155.48L482.44,236.91L483.7,155.48L484.97,236.91L484.97,173.57L508.93,236.91L508.93,173.57" style="vector-effect: non-scaling-stroke; fill: none; stroke: rgb(211, 211, 211); stroke-opacity: 1; stroke-width: 2px; opacity: 1;"/></g><g class="points"><path class="point" transform="translate(30.75,236.91)" d="M3,0A3,3 0 1,1 0,-3A3,3 0 0,1 3,0Z" style="opacity: 1; stroke-width: 0px; fill: rgb(184, 102, 20); fill-opacity: 1;"/><path class="point" transform="translate(30.75,173.57)" d="M3,0A3,3 0 1,1 0,-3A3,3 0 0,1 3,0Z" style="opacity: 1; stroke-width: 0px; fill: rgb(229, 230, 25); fill-opacity: 1;"/><path class="point" transform="translate(54.71,173.57)" d="M3,0A3,3 0 1,1 0,-3A3,3 0 0,1 3,0Z" style="opacity: 1; stroke-width: 0px; fill: rgb(229, 230, 25); fill-opacity: 1;"/><path class="point" transform="translate(55.98,155.48)" d="M3,0A3,3 0 1,1 0,-3A3,3 0 0,1 3,0Z" style="opacity: 1; stroke-width: 0px; fill: rgb(25, 230, 25); fill-opacity: 1;"/><path class="point" transform="translate(78.68,236.91)" d="M3,0A3,3 0 1,1 0,-3A3,3 0 0,1 3,0Z" style="opacity: 1; stroke-width: 0px; fill: rgb(184, 102, 20); fill-opacity: 1;"/><path class="point" transform="translate(79.94,155.48)" d="M3,0A3,3 0 1,1 0,-3A3,3 0 0,1 3,0Z" style="opacity: 1; stroke-width: 0px; fill: rgb(25, 230, 25); fill-opacity: 1;"/><path class="point" transform="translate(81.22,236.91)" d="M3,0A3,3 0 1,1 0,-3A3,3 0 0,1 3,0Z" style="opacity: 1; stroke-width: 0px; fill: rgb(184, 102, 20); fill-opacity: 1;"/><path class="point" transform="translate(81.22,173.57)" d="M3,0A3,3 0 1,1 0,-3A3,3 0 0,1 3,0Z" style="opacity: 1; stroke-width: 0px; fill: rgb(229, 230, 25); fill-opacity: 1;"/><path class="point" transform="translate(105.18,236.91)" d="M3,0A3,3 0 1,1 0,-3A3,3 0 0,1 3,0Z" style="opacity: 1; stroke-width: 0px; fill: rgb(184, 102, 20); fill-opacity: 1;"/><path class="point" transform="translate(105.18,173.57)" d="M3,0A3,3 0 1,1 0,-3A3,3 0 0,1 3,0Z" style="opacity: 1; stroke-width: 0px; fill: rgb(229, 230, 25); fill-opacity: 1;"/><path class="point" transform="translate(106.45,191.67)" d="M3,0A3,3 0 1,1 0,-3A3,3 0 0,1 3,0Z" style="opacity: 1; stroke-width: 0px; fill: rgb(230, 25, 25); fill-opacity: 1;"/><path class="point" transform="translate(106.45,128.33)" d="M3,0A3,3 0 1,1 0,-3A3,3 0 0,1 3,0Z" style="opacity: 1; stroke-width: 0px; fill: rgb(230, 128, 25); fill-opacity: 1;"/><path class="point" transform="translate(130.41,191.67)" d="M3,0A3,3 0 1,1 0,-3A3,3 0 0,1 3,0Z" style="opacity: 1; stroke-width: 0px; fill: rgb(230, 25, 25); fill-opacity: 1;"/><path class="point" transform="translate(130.41,128.33)" d="M3,0A3,3 0 1,1 0,-3A3,3 0 0,1 3,0Z" style="opacity: 1; stroke-width: 0px; fill: rgb(230, 128, 25); fill-opacity: 1;"/><path class="point" transform="translate(131.69,236.91)" d="M3,0A3,3 0 1,1 0,-3A3,3 0 0,1 3,0Z" style="opacity: 1; stroke-width: 0px; fill: rgb(184, 102, 20); fill-opacity: 1;"/><path class="point" transform="translate(131.69,173.57)" d="M3,0A3,3 0 1,1 0,-3A3,3 0 0,1 3,0Z" style="opacity: 1; stroke-width: 0px; fill: rgb(229, 230, 25); fill-opacity: 1;"/><path class="point" transform="translate(155.65,173.57)" d="M3,0A3,3 0 1,1 0,-3A3,3 0 0,1 3,0Z" style="opacity: 1; stroke-width: 0px; fill: rgb(229, 230, 25); fill-opacity: 1;"/><path class="point" transform="translate(156.92,155.48)" d="M3,0A3,3 0 1,1 0,-3A3,3 0 0,1 3,0Z" style="opacity: 1; stroke-width: 0px; fill: rgb(25, 230, 25); fill-opacity: 1;"/><path class="point" transform="translate(179.62,236.91)" d="M3,0A3,3 0 1,1 0,-3A3,3 0 0,1 3,0Z" style="opacity: 1; stroke-width: 0px; fill: rgb(184, 102, 20); fill-opacity: 1;"/><path class="point" transform="translate(180.88,155.48)" d="M3,0A3,3 0 1,1 0,-3A3,3 0 0,1 3,0Z" style="opacity: 1; stroke-width: 0px; fill: rgb(25, 230, 25); fill-opacity: 1;"/><path class="point" transform="translate(182.16,236.91)" d="M3,0A3,3 0 1,1 0,-3A3,3 0 0,1 3,0Z" style="opacity: 1; stroke-width: 0px; fill: rgb(184, 102, 20); fill-opacity: 1;"/><path class="point" transform="translate(182.16,173.57)" d="M3,0A3,3 0 1,1 0,-3A3,3 0 0,1 3,0Z" style="opacity: 1; stroke-width: 0px; fill: rgb(229, 230, 25); fill-opacity: 1;"/><path class="point" transform="translate(200.12,236.91)" d="M3,0A3,3 0 1,1 0,-3A3,3 0 0,1 3,0Z" style="opacity: 1; stroke-width: 0px; fill: rgb(184, 102, 20); fill-opacity: 1;"/><path class="point" transform="translate(200.12,173.57)" d="M3,0A3,3 0 1,1 0,-3A3,3 0 0,1 3,0Z" style="opacity: 1; stroke-width: 0px; fill: rgb(229, 230, 25); fill-opacity: 1;"/><path class="point" transform="translate(201.08,245.96)" d="M3,0A3,3 0 1,1 0,-3A3,3 0 0,1 3,0Z" style="opacity: 1; stroke-width: 0px; fill: rgb(20, 184, 184); fill-opacity: 1;"/><path class="point" transform="translate(207.06,245.96)" d="M3,0A3,3 0 1,1 0,-3A3,3 0 0,1 3,0Z" style="opacity: 1; stroke-width: 0px; fill: rgb(20, 184, 184); fill-opacity: 1;"/><path class="point" transform="translate(207.39,264.06)" d="M3,0A3,3 0 1,1 0,-3A3,3 0 0,1 3,0Z" style="opacity: 1; stroke-width: 0px; fill: rgb(20, 184, 20); fill-opacity: 1;"/><path class="point" transform="translate(207.39,191.67)" d="M3,0A3,3 0 1,1 0,-3A3,3 0 0,1 3,0Z" style="opacity: 1; stroke-width: 0px; fill: rgb(230, 25, 25); fill-opacity: 1;"/><path class="point" transform="translate(219.37,264.06)" d="M3,0A3,3 0 1,1 0,-3A3,3 0 0,1 3,0Z" style="opacity: 1; stroke-width: 0px; fill: rgb(20, 184, 20); fill-opacity: 1;"/><path class="point" transform="translate(219.37,191.67)" d="M3,0A3,3 0 1,1 0,-3A3,3 0 0,1 3,0Z" style="opacity: 1; stroke-width: 0px; fill: rgb(230, 25, 25); fill-opacity: 1;"/><path class="point" transform="translate(220.01,282.15)" d="M3,0A3,3 0 1,1 0,-3A3,3 0 0,1 3,0Z" style="opacity: 1; stroke-width: 0px; fill: rgb(184, 184, 20); fill-opacity: 1;"/><path class="point" transform="translate(220.01,200.72)" d="M3,0A3,3 0 1,1 0,-3A3,3 0 0,1 3,0Z" style="opacity: 1; stroke-width: 0px; fill: rgb(20, 184, 102); fill-opacity: 1;"/><path class="point" transform="translate(231.98,282.15)" d="M3,0A3,3 0 1,1 0,-3A3,3 0 0,1 3,0Z" style="opacity: 1; stroke-width: 0px; fill: rgb(184, 184, 20); fill-opacity: 1;"/><path class="point" transform="translate(231.98,200.72)" d="M3,0A3,3 0 1,1 0,-3A3,3 0 0,1 3,0Z" style="opacity: 1; stroke-width: 0px; fill: rgb(20, 184, 102); fill-opacity: 1;"/><path class="point" transform="translate(232.63,282.15)" d="M3,0A3,3 0 1,1 0,-3A3,3 0 0,1 3,0Z" style="opacity: 1; stroke-width: 0px; fill: rgb(184, 184, 20); fill-opacity: 1;"/><path class="point" transform="translate(232.63,218.81)" d="M3,0A3,3 0 1,1 0,-3A3,3 0 0,1 3,0Z" style="opacity: 1; stroke-width: 0px; fill: rgb(102, 184, 20); fill-opacity: 1;"/><path class="point" transform="translate(256.59,282.15)" d="M3,0A3,3 0 1,1 0,-3A3,3 0 0,1 3,0Z" style="opacity: 1; stroke-width: 0px; fill: rgb(184, 184, 20); fill-opacity: 1;"/><path class="point" transform="translate(256.59,218.81)" d="M3,0A3,3 0 1,1 0,-3A3,3 0 0,1 3,0Z" style="opacity: 1; stroke-width: 0px; fill: rgb(102, 184, 20); fill-opacity: 1;"/><path class="point" transform="translate(257.86,273.1)" d="M3,0A3,3 0 1,1 0,-3A3,3 0 0,1 3,0Z" style="opacity: 1; stroke-width: 0px; fill: rgb(102, 20, 184); fill-opacity: 1;"/><path class="point" transform="translate(257.86,200.72)" d="M3,0A3,3 0 1,1 0,-3A3,3 0 0,1 3,0Z" style="opacity: 1; stroke-width: 0px; fill: rgb(20, 184, 102); fill-opacity: 1;"/><path class="point" transform="translate(281.82,273.1)" d="M3,0A3,3 0 1,1 0,-3A3,3 0 0,1 3,0Z" style="opacity: 1; stroke-width: 0px; fill: rgb(102, 20, 184); fill-opacity: 1;"/><path class="point" transform="translate(281.82,200.72)" d="M3,0A3,3 0 1,1 0,-3A3,3 0 0,1 3,0Z" style="opacity: 1; stroke-width: 0px; fill: rgb(20, 184, 102); fill-opacity: 1;"/><path class="point" transform="translate(283.1,264.06)" d="M3,0A3,3 0 1,1 0,-3A3,3 0 0,1 3,0Z" style="opacity: 1; stroke-width: 0px; fill: rgb(20, 184, 20); fill-opacity: 1;"/><path class="point" transform="translate(283.1,200.72)" d="M3,0A3,3 0 1,1 0,-3A3,3 0 0,1 3,0Z" style="opacity: 1; stroke-width: 0px; fill: rgb(20, 184, 102); fill-opacity: 1;"/><path class="point" transform="translate(295.07,264.06)" d="M3,0A3,3 0 1,1 0,-3A3,3 0 0,1 3,0Z" style="opacity: 1; stroke-width: 0px; fill: rgb(20, 184, 20); fill-opacity: 1;"/><path class="point" transform="translate(295.07,200.72)" d="M3,0A3,3 0 1,1 0,-3A3,3 0 0,1 3,0Z" style="opacity: 1; stroke-width: 0px; fill: rgb(20, 184, 102); fill-opacity: 1;"/><path class="point" transform="translate(295.71,282.15)" d="M3,0A3,3 0 1,1 0,-3A3,3 0 0,1 3,0Z" style="opacity: 1; stroke-width: 0px; fill: rgb(184, 184, 20); fill-opacity: 1;"/><path class="point" transform="translate(295.71,200.72)" d="M3,0A3,3 0 1,1 0,-3A3,3 0 0,1 3,0Z" style="opacity: 1; stroke-width: 0px; fill: rgb(20, 184, 102); fill-opacity: 1;"/><path class="point" transform="translate(307.69,282.15)" d="M3,0A3,3 0 1,1 0,-3A3,3 0 0,1 3,0Z" style="opacity: 1; stroke-width: 0px; fill: rgb(184, 184, 20); fill-opacity: 1;"/><path class="point" transform="translate(307.69,200.72)" d="M3,0A3,3 0 1,1 0,-3A3,3 0 0,1 3,0Z" style="opacity: 1; stroke-width: 0px; fill: rgb(20, 184, 102); fill-opacity: 1;"/><path class="point" transform="translate(308.33,291.2)" d="M3,0A3,3 0 1,1 0,-3A3,3 0 0,1 3,0Z" style="opacity: 1; stroke-width: 0px; fill: rgb(20, 102, 184); fill-opacity: 1;"/><path class="point" transform="translate(308.33,218.81)" d="M3,0A3,3 0 1,1 0,-3A3,3 0 0,1 3,0Z" style="opacity: 1; stroke-width: 0px; fill: rgb(102, 184, 20); fill-opacity: 1;"/><path class="point" transform="translate(332.29,291.2)" d="M3,0A3,3 0 1,1 0,-3A3,3 0 0,1 3,0Z" style="opacity: 1; stroke-width: 0px; fill: rgb(20, 102, 184); fill-opacity: 1;"/><path class="point" transform="translate(332.29,218.81)" d="M3,0A3,3 0 1,1 0,-3A3,3 0 0,1 3,0Z" style="opacity: 1; stroke-width: 0px; fill: rgb(102, 184, 20); fill-opacity: 1;"/><path class="point" transform="translate(333.57,300.25)" d="M3,0A3,3 0 1,1 0,-3A3,3 0 0,1 3,0Z" style="opacity: 1; stroke-width: 0px; fill: rgb(184, 20, 20); fill-opacity: 1;"/><path class="point" transform="translate(333.57,236.91)" d="M3,0A3,3 0 1,1 0,-3A3,3 0 0,1 3,0Z" style="opacity: 1; stroke-width: 0px; fill: rgb(184, 102, 20); fill-opacity: 1;"/><path class="point" transform="translate(357.53,300.25)" d="M3,0A3,3 0 1,1 0,-3A3,3 0 0,1 3,0Z" style="opacity: 1; stroke-width: 0px; fill: rgb(184, 20, 20); fill-opacity: 1;"/><path class="point" transform="translate(357.53,236.91)" d="M3,0A3,3 0 1,1 0,-3A3,3 0 0,1 3,0Z" style="opacity: 1; stroke-width: 0px; fill: rgb(184, 102, 20); fill-opacity: 1;"/><path class="point" transform="translate(358.8,218.81)" d="M3,0A3,3 0 1,1 0,-3A3,3 0 0,1 3,0Z" style="opacity: 1; stroke-width: 0px; fill: rgb(102, 184, 20); fill-opacity: 1;"/><path class="point" transform="translate(358.8,191.67)" d="M3,0A3,3 0 1,1 0,-3A3,3 0 0,1 3,0Z" style="opacity: 1; stroke-width: 0px; fill: rgb(230, 25, 25); fill-opacity: 1;"/><path class="point" transform="translate(382.76,218.81)" d="M3,0A3,3 0 1,1 0,-3A3,3 0 0,1 3,0Z" style="opacity: 1; stroke-width: 0px; fill: rgb(102, 184, 20); fill-opacity: 1;"/><path class="point" transform="translate(382.76,191.67)" d="M3,0A3,3 0 1,1 0,-3A3,3 0 0,1 3,0Z" style="opacity: 1; stroke-width: 0px; fill: rgb(230, 25, 25); fill-opacity: 1;"/><path class="point" transform="translate(384.04,236.91)" d="M3,0A3,3 0 1,1 0,-3A3,3 0 0,1 3,0Z" style="opacity: 1; stroke-width: 0px; fill: rgb(184, 102, 20); fill-opacity: 1;"/><path class="point" transform="translate(384.04,200.72)" d="M3,0A3,3 0 1,1 0,-3A3,3 0 0,1 3,0Z" style="opacity: 1; stroke-width: 0px; fill: rgb(20, 184, 102); fill-opacity: 1;"/><path class="point" transform="translate(408,236.91)" d="M3,0A3,3 0 1,1 0,-3A3,3 0 0,1 3,0Z" style="opacity: 1; stroke-width: 0px; fill: rgb(184, 102, 20); fill-opacity: 1;"/><path class="point" transform="translate(408,200.72)" d="M3,0A3,3 0 1,1 0,-3A3,3 0 0,1 3,0Z" style="opacity: 1; stroke-width: 0px; fill: rgb(20, 184, 102); fill-opacity: 1;"/><path class="point" transform="translate(409.27,191.67)" d="M3,0A3,3 0 1,1 0,-3A3,3 0 0,1 3,0Z" style="opacity: 1; stroke-width: 0px; fill: rgb(230, 25, 25); fill-opacity: 1;"/><path class="point" transform="translate(409.27,128.33)" d="M3,0A3,3 0 1,1 0,-3A3,3 0 0,1 3,0Z" style="opacity: 1; stroke-width: 0px; fill: rgb(230, 128, 25); fill-opacity: 1;"/><path class="point" transform="translate(433.23,191.67)" d="M3,0A3,3 0 1,1 0,-3A3,3 0 0,1 3,0Z" style="opacity: 1; stroke-width: 0px; fill: rgb(230, 25, 25); fill-opacity: 1;"/><path class="point" transform="translate(433.23,128.33)" d="M3,0A3,3 0 1,1 0,-3A3,3 0 0,1 3,0Z" style="opacity: 1; stroke-width: 0px; fill: rgb(230, 128, 25); fill-opacity: 1;"/><path class="point" transform="translate(434.51,236.91)" d="M3,0A3,3 0 1,1 0,-3A3,3 0 0,1 3,0Z" style="opacity: 1; stroke-width: 0px; fill: rgb(184, 102, 20); fill-opacity: 1;"/><path class="point" transform="translate(434.51,173.57)" d="M3,0A3,3 0 1,1 0,-3A3,3 0 0,1 3,0Z" style="opacity: 1; stroke-width: 0px; fill: rgb(229, 230, 25); fill-opacity: 1;"/><path class="point" transform="translate(458.47,173.57)" d="M3,0A3,3 0 1,1 0,-3A3,3 0 0,1 3,0Z" style="opacity: 1; stroke-width: 0px; fill: rgb(229, 230, 25); fill-opacity: 1;"/><path class="point" transform="translate(459.74,155.48)" d="M3,0A3,3 0 1,1 0,-3A3,3 0 0,1 3,0Z" style="opacity: 1; stroke-width: 0px; fill: rgb(25, 230, 25); fill-opacity: 1;"/><path class="point" transform="translate(482.44,236.91)" d="M3,0A3,3 0 1,1 0,-3A3,3 0 0,1 3,0Z" style="opacity: 1; stroke-width: 0px; fill: rgb(184, 102, 20); fill-opacity: 1;"/><path class="point" transform="translate(483.7,155.48)" d="M3,0A3,3 0 1,1 0,-3A3,3 0 0,1 3,0Z" style="opacity: 1; stroke-width: 0px; fill: rgb(25, 230, 25); fill-opacity: 1;"/><path class="point" transform="translate(484.97,236.91)" d="M3,0A3,3 0 1,1 0,-3A3,3 0 0,1 3,0Z" style="opacity: 1; stroke-width: 0px; fill: rgb(184, 102, 20); fill-opacity: 1;"/><path class="point" transform="translate(484.97,173.57)" d="M3,0A3,3 0 1,1 0,-3A3,3 0 0,1 3,0Z" style="opacity: 1; stroke-width: 0px; fill: rgb(229, 230, 25); fill-opacity: 1;"/><path class="point" transform="translate(508.93,236.91)" d="M3,0A3,3 0 1,1 0,-3A3,3 0 0,1 3,0Z" style="opacity: 1; stroke-width: 0px; fill: rgb(184, 102, 20); fill-opacity: 1;"/><path class="point" transform="translate(508.93,173.57)" d="M3,0A3,3 0 1,1 0,-3A3,3 0 0,1 3,0Z" style="opacity: 1; stroke-width: 0px; fill: rgb(229, 230, 25); fill-opacity: 1;"/></g><g class="text"/></g></g></g><g class="overplot"/><path class="xlines-above crisp" d="M0,0" style="fill: none;"/><path class="ylines-above crisp" d="M0,0" style="fill: none;"/><g class="overlines-above"/><g class="xaxislayer-above"><g class="xtick"><text text-anchor="middle" x="0" y="433" transform="translate(110.75,0)" style="font-family: 'Open Sans', verdana, arial, sans-serif; font-size: 12px; fill: rgb(42, 63, 95); fill-opacity: 1; white-space: pre;">0</text></g><g class="xtick"><text text-anchor="middle" x="0" y="433" transform="translate(242.18,0)" style="font-family: 'Open Sans', verdana, arial, sans-serif; font-size: 12px; fill: rgb(42, 63, 95); fill-opacity: 1; white-space: pre;">10k</text></g><g class="xtick"><text text-anchor="middle" x="0" y="433" transform="translate(373.61,0)" style="font-family: 'Open Sans', verdana, arial, sans-serif; font-size: 12px; fill: rgb(42, 63, 95); fill-opacity: 1; white-space: pre;">20k</text></g><g class="xtick"><text text-anchor="middle" x="0" y="433" transform="translate(505.04,0)" style="font-family: 'Open Sans', verdana, arial, sans-serif; font-size: 12px; fill: rgb(42, 63, 95); fill-opacity: 1; white-space: pre;">30k</text></g></g><g class="yaxislayer-above"><g class="ytick"><text text-anchor="end" x="79" y="4.199999999999999" transform="translate(0,382.15)" style="font-family: 'Open Sans', verdana, arial, sans-serif; font-size: 12px; fill: rgb(42, 63, 95); fill-opacity: 1; white-space: pre;">50</text></g><g class="ytick"><text text-anchor="end" x="79" y="4.199999999999999" transform="translate(0,336.90999999999997)" style="font-family: 'Open Sans', verdana, arial, sans-serif; font-size: 12px; fill: rgb(42, 63, 95); fill-opacity: 1; white-space: pre;">55</text></g><g class="ytick"><text text-anchor="end" x="79" y="4.199999999999999" transform="translate(0,291.66999999999996)" style="font-family: 'Open Sans', verdana, arial, sans-serif; font-size: 12px; fill: rgb(42, 63, 95); fill-opacity: 1; white-space: pre;">60</text></g><g class="ytick"><text text-anchor="end" x="79" y="4.199999999999999" transform="translate(0,246.43)" style="font-family: 'Open Sans', verdana, arial, sans-serif; font-size: 12px; fill: rgb(42, 63, 95); fill-opacity: 1; white-space: pre;">65</text></g><g class="ytick"><text text-anchor="end" x="79" y="4.199999999999999" transform="translate(0,201.19)" style="font-family: 'Open Sans', verdana, arial, sans-serif; font-size: 12px; fill: rgb(42, 63, 95); fill-opacity: 1; white-space: pre;">70</text></g><g class="ytick"><text text-anchor="end" x="79" y="4.199999999999999" transform="translate(0,155.94)" style="font-family: 'Open Sans', verdana, arial, sans-serif; font-size: 12px; fill: rgb(42, 63, 95); fill-opacity: 1; white-space: pre;">75</text></g><g class="ytick"><text text-anchor="end" x="79" y="4.199999999999999" transform="translate(0,110.7)" style="font-family: 'Open Sans', verdana, arial, sans-serif; font-size: 12px; fill: rgb(42, 63, 95); fill-opacity: 1; white-space: pre;">80</text></g></g><g class="overaxes-above"/></g></g><g class="polarlayer"/><g class="ternarylayer"/><g class="geolayer"/><g class="funnelarealayer"/><g class="pielayer"/><g class="treemaplayer"/><g class="sunburstlayer"/><g class="glimages"/><defs id="topdefs-389dd1"><g class="clips"/></defs><g class="layer-above"><g class="imagelayer"/><g class="shapelayer"/></g><g class="infolayer"><g class="g-gtitle"><text class="gtitle" x="35" y="50" text-anchor="start" dy="0em" style="font-family: 'Open Sans', verdana, arial, sans-serif; font-size: 17px; fill: rgb(42, 63, 95); opacity: 1; font-weight: normal; white-space: pre;">dancingqueen</text></g><g class="g-xtitle"/><g class="g-ytitle"/></g></svg>